<?xml version="1.0" encoding="UTF-8" standalone="no"?>
<!-- Created with Inkscape (http://www.inkscape.org/) -->

<svg
   width="210mm"
   height="297mm"
   viewBox="0 0 210 297"
   version="1.1"
   id="svg1"
   inkscape:version="1.4.2 (ebf0e940d0, 2025-05-08)"
   sodipodi:docname="arm.svg"
   xmlns:inkscape="http://www.inkscape.org/namespaces/inkscape"
   xmlns:sodipodi="http://sodipodi.sourceforge.net/DTD/sodipodi-0.dtd"
   xmlns="http://www.w3.org/2000/svg"
   xmlns:svg="http://www.w3.org/2000/svg">
  <sodipodi:namedview
     id="namedview1"
     pagecolor="#ffffff"
     bordercolor="#666666"
     borderopacity="1.0"
     inkscape:showpageshadow="2"
     inkscape:pageopacity="0.0"
     inkscape:pagecheckerboard="0"
     inkscape:deskcolor="#d1d1d1"
     inkscape:document-units="mm"
     inkscape:zoom="0.84898288"
     inkscape:cx="396.94558"
     inkscape:cy="419.91424"
     inkscape:window-width="2194"
     inkscape:window-height="1162"
     inkscape:window-x="0"
     inkscape:window-y="0"
     inkscape:window-maximized="1"
     inkscape:current-layer="layer1" />
  <defs
     id="defs1" />
  <g
     inkscape:label="Layer 1"
     inkscape:groupmode="layer"
     id="layer1">
    <path
       id="path2441"
       style="fill:#000000;stroke:#000000;stroke-width:0.0571579"
       d="m 47.740666,22.667698 c 4.7625,0.518583 8.255,2.854854 7.77875,5.212291 -0.44979,2.357435 -4.68312,3.847045 -9.44562,3.325815 -4.7625,-0.51859 -8.255,-2.85221 -7.77875,-5.212294 0.44979,-2.357437 4.68312,-3.847042 9.44562,-3.325812 z"
       inkscape:connector-curvature="0" />
    <path
       id="path2443"
       style="fill:#000000;stroke:#000000;stroke-width:0.0571579"
       d="m 48.163996,17.80201 c 13.09688,1.987021 22.6748,10.906124 21.4048,19.917834 -1.27,9.01171 -12.91167,14.70554 -25.98209,12.71587 -13.10745,-1.98702 -22.70125,-10.90612 -21.43389,-19.91783 1.26471,-9.009061 12.91431,-14.70554 26.01118,-12.715874 z"
       inkscape:connector-curvature="0" />
    <path
       id="path2445"
       style="fill:#ffffff;stroke:#000000;stroke-width:0.0571579"
       d="m 48.031706,17.061177 c 13.04396,1.905 22.59542,10.448396 21.32542,19.079107 -1.24354,8.63071 -12.83229,14.08377 -25.87625,12.18141 -13.03867,-1.905 -22.59012,-10.44839 -21.33071,-19.0791 1.26206,-8.630709 12.86404,-14.086417 25.88154,-12.181417 z"
       inkscape:connector-curvature="0" />
    <path
       id="path2447"
       style="fill:#ffffff;stroke:#000000;stroke-width:0.0571579"
       d="m 52.556086,30.570804 c -1.77271,0.75406 -4.23334,1.08479 -6.87917,0.79639 -4.7625,-0.52123 -8.22854,-2.85485 -7.77875,-5.212288 0.21167,-1.145646 1.32292,-2.084917 2.96333,-2.690813 -1.40229,0.605896 -2.35479,1.481667 -2.56645,2.529417 -0.4498,2.360084 3.01625,4.693704 7.77875,5.212294 2.46062,0.26987 4.7625,0.005 6.48229,-0.635 z"
       inkscape:connector-curvature="0" />
    <path
       id="path2449"
       style="fill:#000000;stroke:#000000;stroke-width:0.0571579"
       d="m 47.555456,20.138281 c 10.16,1.463146 17.56834,8.016873 16.58938,14.639393 -0.52917,3.59304 -3.41313,6.46907 -7.59354,8.11477 -2.6723,1.05305 -5.8473,1.60338 -9.26042,1.51077 -1.08479,-0.0291 -2.16958,-0.1217 -3.28083,-0.28045 -10.14413,-1.4605 -17.57363,-8.01688 -16.59202,-14.63675 0.97895,-6.622525 10.00389,-10.808233 20.13743,-9.347733 z"
       inkscape:connector-curvature="0" />
    <path
       id="path2451"
       style="fill:#ffffff;stroke:#000000;stroke-width:0.0571579"
       d="m 47.687746,19.532385 c 9.63084,1.285875 16.69521,7.064375 15.76917,12.898439 -0.92604,5.83671 -9.49854,9.525 -19.12937,8.23648 -9.63348,-1.28852 -16.68727,-7.06438 -15.75594,-12.901086 0.93133,-5.834062 9.48531,-9.522354 19.11614,-8.233833 z"
       inkscape:connector-curvature="0" />
    <path
       id="path2453"
       style="fill:#000000;stroke:#000000;stroke-width:0.0571579"
       d="m 47.476086,22.612135 c 5.37104,0.777875 9.28687,4.267729 8.75771,7.791979 -0.50271,3.52425 -5.26521,5.75204 -10.63625,4.97417 -5.34459,-0.77788 -9.28688,-4.26509 -8.75771,-7.791982 0.52916,-3.52425 5.29166,-5.752042 10.63625,-4.974167 z"
       inkscape:connector-curvature="0" />
    <path
       id="path2455"
       style="fill:#000000;stroke:#ffffff;stroke-width:0.0571579"
       d="m 59.832126,15.129719 c -1.42875,3.251729 -5.23875,4.683124 -8.54604,3.201458 -3.30729,-1.484313 -5.34459,-5.588 -3.43959,-8.5751461 l 3.81,-5.990166 c 1.69334,-2.659063 4.73605,-3.37873004 7.67292,-2.061105 2.93688,1.320271 4.31271,4.738688 3.06917,7.630584 -0.92604,2.1272501 -1.64042,3.6274371 -2.56646,5.7943751 z"
       inkscape:connector-curvature="0" />
    <path
       id="path2457"
       style="fill:#ffffff;stroke:#000000;stroke-width:0.0571579"
       d="m 55.440046,8.4516349 c 2.88395,1.161521 4.23333,4.1698341 3.01625,6.7151251 -1.24355,2.545292 -4.5773,3.669771 -7.46125,2.50825 -2.91042,-1.161521 -4.23334,-4.169833 -3.01625,-6.715125 1.24354,-2.5479371 4.57729,-3.6697711 7.46125,-2.5082501 z"
       inkscape:connector-curvature="0" />
    <path
       id="path2459"
       style="fill:#ffffff;stroke:#000000;stroke-width:0.0571579"
       d="m 47.343796,22.826448 c 4.7625,0.521229 8.255,2.854854 7.77875,5.212296 -0.4498,2.35743 -4.68313,3.84704 -9.44563,3.32845 -4.7625,-0.52123 -8.22854,-2.85485 -7.77875,-5.212288 0.44979,-2.357438 4.68313,-3.849688 9.44563,-3.328458 z"
       inkscape:connector-curvature="0" />
    <path
       id="path2461"
       style="fill:#ffffff;stroke:#000000;stroke-width:0.0571579"
       d="m 50.016086,13.626885 c 1.13771,-4.8021871 7.46125,-1.820333 5.10646,1.957917 -1.48167,-1.127125 -3.22792,-1.68275 -5.10646,-1.957917 z"
       inkscape:connector-curvature="0" />
    <path
       id="path2471"
       style="fill:#000000;stroke:#000000;stroke-width:0.0571579"
       d="m 56.868796,25.625739 c 0,2.942165 -3.65125,5.331355 -8.14917,5.331355 -4.49792,0 -9.78958,-3.058584 -9.36625,-5.974292 l 0.87312,-6.392333 c 0.39688,-2.915709 4.1275,-4.971521 8.62542,-4.971521 4.49792,0 8.17563,2.386541 8.17563,5.331354 0,2.878666 -0.15875,3.71475 -0.15875,6.675437 z"
       inkscape:connector-curvature="0" />
    <path
       id="path2473"
       style="fill:#ffffff;stroke:#000000;stroke-width:0.0571579"
       d="m 56.974626,18.812719 c 0.0265,0.11377 0.0265,0.227541 0.0265,0.343958 0,3.066521 -3.73063,5.553604 -8.36084,5.553604 -4.60375,0 -8.36083,-2.487083 -8.36083,-5.553604 0,-0.116417 0,-0.230188 0.0265,-0.343958 0.26458,2.90777 3.88937,5.212291 8.33437,5.212291 4.445,0 8.0698,-2.304521 8.33438,-5.212291 z"
       inkscape:connector-curvature="0" />
    <path
       id="path2475"
       style="fill:#ffffff;stroke:#000000;stroke-width:0.0571579"
       d="m 43.348586,26.956593 c 2.24896,-1.177395 4.31271,1.04775 3.30729,3.085041 0.0529,-0.19844 0.10583,-0.40746 0.10583,-0.62442 0.0794,-1.38641 -0.97896,-2.566454 -2.35479,-2.635246 -0.37042,-0.02117 -0.71437,0.04498 -1.05833,0.174625 z"
       inkscape:connector-curvature="0" />
    <path
       id="path2497"
       style="fill:#000000;stroke:#000000;stroke-width:0.0571579"
       d="m 42.951706,28.001698 c 1.82563,-0.343959 3.38667,0.02911 3.175,2.510896 -2.56646,2.78871 -3.81,6.223 -3.86291,9.30804 0.15875,6.03779 0.76729,15.06802 -1.19063,18.11073 -2.69875,5.8129 -8.87148,7.91633 -12.80054,11.36915 0.20638,0.889 -0.12171,1.78329 -0.38894,2.11402 -1.35202,1.02923 -2.3151,1.87589 -3.66448,2.90512 0.0106,0.2884 0.0238,0.57415 0.0344,0.8599 -1.37319,1.00541 -2.74902,2.00818 -4.12221,3.0136 1.45521,0.76465 2.47386,1.59279 3.37079,2.43681 0.16669,0.36513 0.0953,0.56621 -0.21431,0.61119 -1.0795,-1.19062 -2.53206,-2.23044 -4.80748,-2.93952 -1.86531,1.33879 -3.72798,2.67758 -5.59329,4.01638 -0.037,0.83608 -0.0714,1.67216 -0.10848,2.50825 -1.12183,0.65881 -2.24631,1.31497 -3.3707905,1.97379 -0.10848,-0.0132 -0.21431,-0.0238 -0.32279,-0.037 -0.75142,0.47889 -1.50548,0.95779 -2.25954,1.43404 -0.22755,-0.082 -0.45509,-0.27517 -0.67998,-0.35984 0.11641,-1.74625 -1.09802,-3.17235 -1.42611,-1.08743 l -0.89694,-0.53975 c 0.0609,-1.08744 0.18257,-2.41036 0.24342,-3.4978 0.381,-0.42068 0.98425,-0.67204 1.3679,-1.09008 l -2.44211,-2.10344 -0.003,-0.67998 6.02456,-4.62756 c 0.69321,0.35454 1.3864205,0.44715 2.0796205,-0.0344 2.79665,-1.78065 5.59594,-3.56394 8.39259,-5.34459 0.40481,0.21696 0.81227,0.43127 1.21973,0.64559 1.32556,-0.97896 2.65377,-1.96057 3.97933,-2.93952 0.48948,-0.24342 0.9816,-0.14817 1.47108,0.28575 3.35757,-2.48709 6.71777,-4.97153 10.07534,-7.45861 1.71979,-1.13771 3.01625,-3.88144 2.59291,-13.23181 0.0794,-4.38679 -0.23812,-8.71538 1.50813,-13.23446 0.76729,-1.50548 1.85208,-3.39196 2.61937,-4.897436 z"
       inkscape:connector-curvature="0" />
    <path
       id="path2501"
       style="fill:#ffffff;stroke:#000000;stroke-width:0.0571579"
       d="m 20.999226,69.371944 c 0.34132,-0.0529 0.6694,-0.17462 1.01071,0 1.33879,-0.91016 2.57704,-1.82033 3.91584,-2.7305 -0.5715,-0.12171 -0.86255,-0.11906 -1.52665,0.25929 -1.07156,0.77259 -2.32833,1.69598 -3.3999,2.47121 z"
       inkscape:connector-curvature="0" />
    <path
       id="path2503"
       style="fill:#ffffff;stroke:#000000;stroke-width:0.0571579"
       d="m 24.288006,73.999514 c 0.1561,-0.30957 0.1217,-0.89959 0.0635,-1.27794 1.28322,-0.9869 2.53735,-1.87325 3.82322,-2.86015 -0.0661,0.58209 -0.2196,1.15094 -0.78845,1.66159 -1.07157,0.77522 -2.02671,1.70127 -3.09827,2.4765 z"
       inkscape:connector-curvature="0" />
    <path
       id="path2505"
       style="fill:#ffffff;stroke:#000000;stroke-width:0.0571579"
       d="m 42.237336,47.856034 c 0.44979,9.0461 -2.48709,13.13127 -6.61459,15.67391 6.58813,-3.32316 7.03792,-9.017 6.61459,-15.67391 z"
       inkscape:connector-curvature="0" />
    <path
       id="path2507"
       style="fill:#ffffff;stroke:#000000;stroke-width:0.0571579"
       d="m 45.412336,28.509694 c -4.49792,6.65163 -3.99521,12.54125 -3.94229,17.06034 0.0265,4.51908 0.26458,7.84754 -0.34396,9.49589 -2.11667,5.969 -7.65704,9.34244 -13.11275,12.97517 -0.0265,0.0185 -0.0529,0.0688 -0.082,0.0556 -0.13759,-0.0582 -0.21696,-0.0423 -0.26194,0.0159 -0.0397,0.045 -0.0556,0.11906 -0.0661,0.20108 -0.005,0.037 -0.0609,0.0423 -0.09,0.0608 -1.25942,0.84402 -2.50825,1.70657 -3.70417,2.62202 -0.43127,-0.53181 -0.9181,-1.03716 -1.52929,-1.47637 1.25677,-0.87577 2.51354,-1.75154 3.77296,-2.62467 0.0159,-0.0106 0.0344,-0.0238 0.0503,-0.037 0.0714,-0.0582 0.14023,-0.13494 0.22489,-0.12435 0.30427,0.0423 0.42598,-0.0265 0.35984,-0.21167 -0.008,-0.0238 0.0423,-0.0238 0.0635,-0.037 7.46125,-4.42383 12.2846,-9.02229 12.12585,-16.93069 -0.15875,-9.05669 -1.71979,-12.99898 3.91583,-21.4286 1.24354,-0.394231 2.11667,-0.267231 2.61938,0.38364 z"
       inkscape:connector-curvature="0" />
    <path
       id="path2521"
       style="fill:#ffffff;stroke:#000000;stroke-width:0.0571579"
       d="m 3.0366655,78.878424 6.55902,4.63815 5.8393605,-4.53231 0.23812,-1.4658 8.1624,-5.64885 -4.38944,-3.02948 c -2.80458,1.78858 -5.61181,3.57717 -8.41904,5.36575 -0.59002,0.34925 -1.2673605,0.3466 -1.9843805,0.0582 z"
       inkscape:connector-curvature="0" />
    <path
       id="path2529"
       style="fill:#000000;stroke:#000000;stroke-width:0.0571579"
       d="m 53.931916,11.462594 c -0.18521,-0.261938 -0.60854,-0.306917 -0.89958,-0.275167 -0.39688,0.862542 -0.84667,1.812396 -1.27,2.674937 -0.0794,0.351896 0.42333,0.261938 0.68791,0.343959 0.42334,-0.862542 1.05834,-1.883834 1.48167,-2.743729 z"
       inkscape:connector-curvature="0" />
    <path
       id="path2533"
       style="fill:#000000;stroke:#000000;stroke-width:0.0571579"
       d="m 13.699376,74.695364 c 0.73819,0 1.33879,0.40481 1.33879,0.90752 0,0.50006 -0.6006,0.90752 -1.33879,0.90752 -0.73819,0 -1.33879,-0.40746 -1.33879,-0.90752 0,-0.50271 0.6006,-0.90752 1.33879,-0.90752 z"
       inkscape:connector-curvature="0" />
    <path
       id="path2535"
       style="fill:#000000;stroke:#000000;stroke-width:0.0571579"
       d="m 19.435546,70.874784 c 0.92339,0 1.67216,0.44185 1.67216,0.98425 0,0.54239 -0.74877,0.9816 -1.67216,0.9816 -0.9234,0 -1.67217,-0.43921 -1.67217,-0.9816 0,-0.5424 0.74877,-0.98425 1.67217,-0.98425 z"
       inkscape:connector-curvature="0" />
    <path
       id="path2537"
       style="fill:#ffffff;stroke:#000000;stroke-width:0.0571579"
       d="m 19.218586,71.160534 c 0.6985,0 1.26471,0.38364 1.26471,0.85989 0,0.47361 -0.56621,0.85725 -1.26471,0.85725 -0.70115,0 -1.26736,-0.38364 -1.26736,-0.85725 0,-0.47625 0.56621,-0.85989 1.26736,-0.85989 z"
       inkscape:connector-curvature="0" />
    <path
       id="path2539"
       style="fill:#ffffff;stroke:#000000;stroke-width:0.0571579"
       d="m 4.0897055,82.736054 2.77813,2.36008 -0.0423,3.03213 0.51064,-2.94217 1.76213,-1.08479 -1.9103,0.55827 z"
       inkscape:connector-curvature="0" />
    <path
       id="path2551"
       style="fill:#000000;stroke:#000000;stroke-width:0.0571579"
       d="m 43.877746,27.297906 c -5.52979,7.170208 -4.3127,13.287378 -4.65666,17.732378 -0.87313,-6.29973 0.50271,-12.51744 4.65666,-17.732378 z"
       inkscape:connector-curvature="0" />
  </g>
</svg>
