<?xml version="1.0" encoding="UTF-8" standalone="no"?>
<!-- Created with Inkscape (http://www.inkscape.org/) -->

<svg
   width="210mm"
   height="297mm"
   viewBox="0 0 210 297"
   version="1.1"
   id="svg1"
   inkscape:version="1.4.3 (0d15f75042, 2025-12-25)"
   sodipodi:docname="arm2.svg"
   xmlns:inkscape="http://www.inkscape.org/namespaces/inkscape"
   xmlns:sodipodi="http://sodipodi.sourceforge.net/DTD/sodipodi-0.dtd"
   xmlns="http://www.w3.org/2000/svg"
   xmlns:svg="http://www.w3.org/2000/svg">
  <sodipodi:namedview
     id="namedview1"
     pagecolor="#ffffff"
     bordercolor="#666666"
     borderopacity="1.0"
     inkscape:showpageshadow="2"
     inkscape:pageopacity="0.0"
     inkscape:pagecheckerboard="0"
     inkscape:deskcolor="#d1d1d1"
     inkscape:document-units="mm"
     inkscape:zoom="0.84898288"
     inkscape:cx="396.94558"
     inkscape:cy="419.91424"
     inkscape:window-width="2194"
     inkscape:window-height="1162"
     inkscape:window-x="0"
     inkscape:window-y="0"
     inkscape:window-maximized="1"
     inkscape:current-layer="layer1" />
  <defs
     id="defs1" />
  <g
     inkscape:label="Layer 1"
     inkscape:groupmode="layer"
     id="layer1">
    <path
       id="path2455"
       style="fill:#000000;stroke:#ffffff;stroke-width:0.0571579"
       d="m 99.136645,75.551034 c -1.42875,3.251729 -5.23875,4.683124 -8.54604,3.201458 -3.30729,-1.484313 -5.34459,-5.588 -3.43959,-8.575146 l 3.81,-5.990166 c 1.69334,-2.659063 4.73605,-3.37873 7.67292,-2.061105 2.936885,1.320271 4.312715,4.738688 3.069175,7.630584 -0.92604,2.12725 -1.64042,3.627437 -2.566465,5.794375 z"
       inkscape:connector-curvature="0" />
    <path
       id="path2457"
       style="fill:#ffffff;stroke:#000000;stroke-width:0.0571579"
       d="m 94.744565,68.87295 c 2.88395,1.161521 4.23333,4.169834 3.01625,6.715125 -1.24355,2.545292 -4.5773,3.669771 -7.46125,2.50825 -2.91042,-1.161521 -4.23334,-4.169833 -3.01625,-6.715125 1.24354,-2.547937 4.57729,-3.669771 7.46125,-2.50825 z"
       inkscape:connector-curvature="0" />
    <path
       id="path2461"
       style="fill:#ffffff;stroke:#000000;stroke-width:0.0571579"
       d="m 89.320605,74.0482 c 1.13771,-4.802187 7.46125,-1.820333 5.10646,1.957917 -1.48167,-1.127125 -3.22792,-1.68275 -5.10646,-1.957917 z"
       inkscape:connector-curvature="0" />
    <path
       id="path2475"
       style="fill:#ffffff;stroke:#000000;stroke-width:0.0746482"
       d="m 88.827317,72.537648 c 2.869707,-1.573812 5.503083,1.400516 4.220152,4.123742 0.0675,-0.265253 0.135041,-0.544648 0.135041,-0.834656 0.101316,-1.8532 -1.249168,-3.430552 -3.004748,-3.522506 -0.472661,-0.0283 -0.911546,0.06012 -1.350445,0.23342 z"
       inkscape:connector-curvature="0" />
    <path
       id="path2497"
       style="fill:#000000;stroke:#000000;stroke-width:0.0654513"
       d="m 90.344221,72.865667 c 2.009842,-0.409678 3.728395,0.03467 3.495367,2.99064 -2.825423,3.321535 -4.19444,7.411998 -4.252689,11.086481 0.174768,7.191401 0.844712,17.946992 -1.310768,21.571062 -2.971063,6.92355 -9.76664,9.42887 -14.092154,13.5414 0.227204,1.05886 -0.133991,2.12402 -0.428186,2.51794 -1.488443,1.22588 -2.5487,2.2343 -4.034237,3.46018 0.01167,0.34351 0.0262,0.68385 0.03787,1.0242 -1.511749,1.19751 -3.026404,2.39187 -4.538153,3.5894 1.602045,0.91074 2.72348,1.89711 3.710913,2.90239 0.183509,0.4349 0.104916,0.6744 -0.235935,0.72797 -1.188425,-1.4181 -2.787553,-2.6566 -5.292569,-3.50116 -2.053525,1.59459 -4.104144,3.18917 -6.157669,4.78377 -0.04073,0.99583 -0.07861,1.99165 -0.119426,2.98749 -1.235027,0.78469 -2.47297,1.56622 -3.710913,2.35091 -0.119428,-0.0157 -0.235936,-0.0283 -0.355362,-0.0441 -0.827241,0.57039 -1.657388,1.14079 -2.487534,1.70804 -0.25051,-0.0977 -0.501011,-0.32775 -0.748592,-0.42859 0.128155,-2.0799 -1.208814,-3.77848 -1.57001,-1.2952 l -0.987444,-0.64288 c 0.06705,-1.29521 0.200993,-2.8709 0.267982,-4.16611 0.419444,-0.50106 1.083565,-0.80044 1.505926,-1.29835 l -2.688527,-2.50534 -0.0033,-0.8099 6.632457,-5.51172 c 0.763157,0.42228 1.526315,0.53258 2.289461,-0.041 3.078841,-2.12087 6.160588,-4.24488 9.239427,-6.36575 0.445657,0.25841 0.894231,0.51367 1.342805,0.76894 1.459313,-1.16601 2.921543,-2.33517 4.380856,-3.50116 0.53887,-0.28993 1.080647,-0.17648 1.619517,0.34035 3.696359,-2.96229 7.395614,-5.92142 11.091973,-8.8837 1.893322,-1.35509 3.320599,-4.62305 2.854542,-15.75995 0.08741,-5.224952 -0.262147,-10.380584 1.660305,-15.763103 0.844712,-1.793124 2.038961,-4.040045 2.883673,-5.833165 z"
       inkscape:connector-curvature="0" />
    <path
       id="path2501"
       style="fill:#ffffff;stroke:#000000;stroke-width:0.0746482"
       d="m 65.295556,123.00086 c 0.43553,-0.0707 0.854165,-0.23341 1.289681,0 1.708317,-1.2166 3.288342,-2.43322 4.996671,-3.64983 -0.729242,-0.16269 -1.100627,-0.15915 -1.948028,0.34659 -1.367327,1.03271 -2.970984,2.267 -4.338324,3.30324 z"
       inkscape:connector-curvature="0" />
    <path
       id="path2503"
       style="fill:#ffffff;stroke:#000000;stroke-width:0.0571579"
       d="m 68.267237,128.18788 c 0.1561,-0.30957 0.1217,-0.89959 0.0635,-1.27794 1.28322,-0.9869 2.53735,-1.87325 3.82322,-2.86015 -0.0661,0.58209 -0.2196,1.15094 -0.78845,1.66159 -1.07157,0.77522 -2.02671,1.70127 -3.09827,2.4765 z"
       inkscape:connector-curvature="0" />
    <path
       id="path2521"
       style="fill:#ffffff;stroke:#000000;stroke-width:0.0571579"
       d="m 47.015897,133.06679 6.559019,4.63815 5.839361,-4.53231 0.23812,-1.4658 8.1624,-5.64885 -4.38944,-3.02948 c -2.80458,1.78858 -5.61181,3.57717 -8.41904,5.36575 -0.59002,0.34925 -1.267361,0.3466 -1.984381,0.0582 z"
       inkscape:connector-curvature="0" />
    <path
       id="path2529"
       style="fill:#000000;stroke:#000000;stroke-width:0.0571579"
       d="m 93.236435,71.883909 c -0.18521,-0.261938 -0.60854,-0.306917 -0.89958,-0.275167 -0.39688,0.862542 -0.84667,1.812396 -1.27,2.674937 -0.0794,0.351896 0.42333,0.261938 0.68791,0.343959 0.42334,-0.862542 1.05834,-1.883834 1.48167,-2.743729 z"
       inkscape:connector-curvature="0" />
    <path
       id="path2533"
       style="fill:#000000;stroke:#000000;stroke-width:0.0571579"
       d="m 57.678607,128.88373 c 0.73819,0 1.33879,0.40481 1.33879,0.90752 0,0.50006 -0.6006,0.90752 -1.33879,0.90752 -0.73819,0 -1.33879,-0.40746 -1.33879,-0.90752 0,-0.50271 0.6006,-0.90752 1.33879,-0.90752 z"
       inkscape:connector-curvature="0" />
    <path
       id="path2535"
       style="fill:#000000;stroke:#000000;stroke-width:0.0571579"
       d="m 63.414777,125.06315 c 0.92339,0 1.67216,0.44185 1.67216,0.98425 0,0.54239 -0.74877,0.9816 -1.67216,0.9816 -0.9234,0 -1.67217,-0.43921 -1.67217,-0.9816 0,-0.5424 0.74877,-0.98425 1.67217,-0.98425 z"
       inkscape:connector-curvature="0" />
    <path
       id="path2539"
       style="fill:#ffffff;stroke:#000000;stroke-width:0.0571579"
       d="m 48.068937,136.92442 2.77813,2.36008 -0.0423,3.03213 0.510639,-2.94217 1.76213,-1.08479 -1.9103,0.55827 z"
       inkscape:connector-curvature="0" />
  </g>
</svg>
