<?xml version="1.0" encoding="UTF-8" standalone="no"?>
<!-- Created with Inkscape (http://www.inkscape.org/) -->

<svg
   id="svg2918"
   sodipodi:docname="turntable_arm.svg"
   viewBox="0 0 853.08603 598.74151"
   sodipodi:version="0.32"
   version="1.0"
   inkscape:output_extension="org.inkscape.output.svg.inkscape"
   inkscape:version="1.4.2 (ebf0e940d0, 2025-05-08)"
   width="853.08606"
   height="598.74152"
   xmlns:inkscape="http://www.inkscape.org/namespaces/inkscape"
   xmlns:sodipodi="http://sodipodi.sourceforge.net/DTD/sodipodi-0.dtd"
   xmlns="http://www.w3.org/2000/svg"
   xmlns:svg="http://www.w3.org/2000/svg"
   xmlns:rdf="http://www.w3.org/1999/02/22-rdf-syntax-ns#"
   xmlns:cc="http://creativecommons.org/ns#"
   xmlns:dc="http://purl.org/dc/elements/1.1/">
  <defs
     id="defs2920" />
  <sodipodi:namedview
     id="base"
     bordercolor="#666666"
     inkscape:pageshadow="2"
     inkscape:window-y="0"
     pagecolor="#ffffff"
     inkscape:window-height="1162"
     inkscape:zoom="1.4"
     inkscape:window-x="0"
     showgrid="false"
     borderopacity="1.0"
     inkscape:current-layer="g2423"
     inkscape:cx="277.14286"
     inkscape:cy="419.64285"
     inkscape:window-width="2194"
     inkscape:pageopacity="0.0"
     inkscape:document-units="px"
     fit-margin-top="0"
     fit-margin-left="0"
     fit-margin-right="0"
     fit-margin-bottom="0"
     inkscape:window-maximized="1"
     inkscape:showpageshadow="2"
     inkscape:pagecheckerboard="0"
     inkscape:deskcolor="#d1d1d1" />
  <g
     id="layer1"
     inkscape:label="Calque 1"
     inkscape:groupmode="layer"
     transform="translate(31.748052,15.393772)">
    <g
       id="g2423"
       transform="translate(-469.57003,-596.16029)">
      <path
         id="path2437"
         style="fill:#ffffff;stroke:#000000;stroke-width:0.21603"
         d="m 1105.5,773.85 51.1,-7.45 75,144.7 -52.7,10.72 z"
         inkscape:connector-curvature="0" />
      <path
         id="path2439"
         style="fill:#000000;stroke:#000000;stroke-width:0.21603"
         d="m 1156,807.06 2.9,-0.14 37.4,73.6 -3,0.68 z"
         inkscape:connector-curvature="0" />
      <path
         id="path2441"
         style="fill:#000000;stroke:#000000;stroke-width:0.21603"
         d="m 1049.1,662.53 c 18,1.96 31.2,10.79 29.4,19.7 -1.7,8.91 -17.7,14.54 -35.7,12.57 -18,-1.96 -31.2,-10.78 -29.4,-19.7 1.7,-8.91 17.7,-14.54 35.7,-12.57 z"
         inkscape:connector-curvature="0" />
      <path
         id="path2443"
         style="fill:#000000;stroke:#000000;stroke-width:0.21603"
         d="m 1050.7,644.14 c 49.5,7.51 85.7,41.22 80.9,75.28 -4.8,34.06 -48.8,55.58 -98.2,48.06 -49.54,-7.51 -85.8,-41.22 -81.01,-75.28 4.78,-34.05 48.81,-55.58 98.31,-48.06 z"
         inkscape:connector-curvature="0" />
      <path
         id="path2445"
         style="fill:#ffffff;stroke:#000000;stroke-width:0.21603"
         d="m 1050.2,641.34 c 49.3,7.2 85.4,39.49 80.6,72.11 -4.7,32.62 -48.5,53.23 -97.8,46.04 -49.28,-7.2 -85.38,-39.49 -80.62,-72.11 4.77,-32.62 48.62,-53.24 97.82,-46.04 z"
         inkscape:connector-curvature="0" />
      <path
         id="path2447"
         style="fill:#ffffff;stroke:#000000;stroke-width:0.21603"
         d="m 1067.3,692.4 c -6.7,2.85 -16,4.1 -26,3.01 -18,-1.97 -31.1,-10.79 -29.4,-19.7 0.8,-4.33 5,-7.88 11.2,-10.17 -5.3,2.29 -8.9,5.6 -9.7,9.56 -1.7,8.92 11.4,17.74 29.4,19.7 9.3,1.02 18,0.02 24.5,-2.4 z"
         inkscape:connector-curvature="0" />
      <path
         id="path2449"
         style="fill:#000000;stroke:#000000;stroke-width:0.21603"
         d="m 1048.4,652.97 c 38.4,5.53 66.4,30.3 62.7,55.33 -2,13.58 -12.9,24.45 -28.7,30.67 -10.1,3.98 -22.1,6.06 -35,5.71 -4.1,-0.11 -8.2,-0.46 -12.4,-1.06 -38.34,-5.52 -66.42,-30.3 -62.71,-55.32 3.7,-25.03 37.81,-40.85 76.11,-35.33 z"
         inkscape:connector-curvature="0" />
      <path
         id="path2451"
         style="fill:#ffffff;stroke:#000000;stroke-width:0.21603"
         d="m 1048.9,650.68 c 36.4,4.86 63.1,26.7 59.6,48.75 -3.5,22.06 -35.9,36 -72.3,31.13 -36.41,-4.87 -63.07,-26.7 -59.55,-48.76 3.52,-22.05 35.85,-35.99 72.25,-31.12 z"
         inkscape:connector-curvature="0" />
      <path
         id="path2453"
         style="fill:#000000;stroke:#000000;stroke-width:0.21603"
         d="m 1048.1,662.32 c 20.3,2.94 35.1,16.13 33.1,29.45 -1.9,13.32 -19.9,21.74 -40.2,18.8 -20.2,-2.94 -35.1,-16.12 -33.1,-29.45 2,-13.32 20,-21.74 40.2,-18.8 z"
         inkscape:connector-curvature="0" />
      <path
         id="path2455"
         style="fill:#000000;stroke:#ffffff;stroke-width:0.21603"
         d="m 1094.8,634.04 c -5.4,12.29 -19.8,17.7 -32.3,12.1 -12.5,-5.61 -20.2,-21.12 -13,-32.41 l 14.4,-22.64 c 6.4,-10.05 17.9,-12.77 29,-7.79 11.1,4.99 16.3,17.91 11.6,28.84 -3.5,8.04 -6.2,13.71 -9.7,21.9 z"
         inkscape:connector-curvature="0" />
      <path
         id="path2457"
         style="fill:#ffffff;stroke:#000000;stroke-width:0.21603"
         d="m 1078.2,608.8 c 10.9,4.39 16,15.76 11.4,25.38 -4.7,9.62 -17.3,13.87 -28.2,9.48 -11,-4.39 -16,-15.76 -11.4,-25.38 4.7,-9.63 17.3,-13.87 28.2,-9.48 z"
         inkscape:connector-curvature="0" />
      <path
         id="path2459"
         style="fill:#ffffff;stroke:#000000;stroke-width:0.21603"
         d="m 1047.6,663.13 c 18,1.97 31.2,10.79 29.4,19.7 -1.7,8.91 -17.7,14.54 -35.7,12.58 -18,-1.97 -31.1,-10.79 -29.4,-19.7 1.7,-8.91 17.7,-14.55 35.7,-12.58 z"
         inkscape:connector-curvature="0" />
      <path
         id="path2461"
         style="fill:#ffffff;stroke:#000000;stroke-width:0.21603"
         d="m 1057.7,628.36 c 4.3,-18.15 28.2,-6.88 19.3,7.4 -5.6,-4.26 -12.2,-6.36 -19.3,-7.4 z"
         inkscape:connector-curvature="0" />
      <path
         id="path2463"
         style="fill:#ffffff;stroke:#000000;stroke-width:0.21603"
         d="m 776.86,657.9 c 150.24,0 272.04,84.94 272.04,189.69 0,104.75 -121.8,189.71 -272.04,189.71 -150.24,0 -272.07,-84.96 -272.07,-189.71 0,-104.75 121.83,-189.69 272.07,-189.69 z"
         inkscape:connector-curvature="0" />
      <path
         id="path2465"
         style="fill:#000000;stroke:#000000;stroke-width:0.21603"
         d="m 779.03,657.9 c 149.04,0 269.87,83.48 269.87,186.43 0,102.95 -120.83,186.47 -269.87,186.47 -149.04,0 -269.91,-83.52 -269.91,-186.47 0,-102.95 120.87,-186.43 269.91,-186.43 z"
         inkscape:connector-curvature="0" />
      <path
         id="path2467"
         style="fill:#000000;stroke:#000000;stroke-width:0.21603"
         d="m 777.18,662.24 c 135.62,0 245.62,75.49 245.62,168.58 0,93.08 -110,168.57 -245.62,168.57 -135.62,0 -245.61,-75.49 -245.61,-168.57 0,-93.09 109.99,-168.58 245.61,-168.58 z"
         inkscape:connector-curvature="0" />
      <path
         id="path2469"
         style="fill:#ffffff;stroke:#000000;stroke-width:0.21603"
         d="m 928.7,697.98 c 59.64,30.76 98.2,79.71 98.2,134.85 0,93.08 -109.96,168.57 -245.59,168.57 -57.01,0 -109.5,-13.34 -151.19,-35.73 40.98,21.04 91.85,33.5 146.94,33.5 135.63,0 245.64,-75.49 245.64,-168.58 0,-53.81 -36.79,-101.75 -94,-132.61 z"
         inkscape:connector-curvature="0" />
      <path
         id="path2471"
         style="fill:#000000;stroke:#000000;stroke-width:0.21603"
         d="m 1083.6,673.71 c 0,11.12 -13.8,20.15 -30.8,20.15 -17,0 -37,-11.56 -35.4,-22.58 l 3.3,-24.16 c 1.5,-11.02 15.6,-18.79 32.6,-18.79 17,0 30.9,9.02 30.9,20.15 0,10.88 -0.6,14.04 -0.6,25.23 z"
         inkscape:connector-curvature="0" />
      <path
         id="path2473"
         style="fill:#ffffff;stroke:#000000;stroke-width:0.21603"
         d="m 1084,647.96 c 0.1,0.43 0.1,0.86 0.1,1.3 0,11.59 -14.1,20.99 -31.6,20.99 -17.4,0 -31.6,-9.4 -31.6,-20.99 0,-0.44 0,-0.87 0.1,-1.3 1,10.99 14.7,19.7 31.5,19.7 16.8,0 30.5,-8.71 31.5,-19.7 z"
         inkscape:connector-curvature="0" />
      <path
         id="path2475"
         style="fill:#ffffff;stroke:#000000;stroke-width:0.21603"
         d="m 1032.5,678.74 c 8.5,-4.45 16.3,3.96 12.5,11.66 0.2,-0.75 0.4,-1.54 0.4,-2.36 0.3,-5.24 -3.7,-9.7 -8.9,-9.96 -1.4,-0.08 -2.7,0.17 -4,0.66 z"
         inkscape:connector-curvature="0" />
      <path
         id="path2479"
         style="fill:#ffffff;stroke:#000000;stroke-width:0.21603"
         d="m 776.16,658.53 c 134.35,0 243.34,75.49 243.34,168.58 0,93.09 -108.99,168.57 -243.34,168.57 -134.36,0 -243.31,-75.48 -243.31,-168.57 0,-93.09 108.95,-168.58 243.31,-168.58 z"
         inkscape:connector-curvature="0" />
      <path
         id="path2481"
         style="fill:#000000;stroke:#ffff00;stroke-width:0.21603"
         d="m 778.84,760.77 c 43.3,0 78.4,24.82 78.4,55.43 0,30.61 -35.1,55.44 -78.4,55.44 -43.29,0 -78.4,-24.83 -78.4,-55.44 0,-30.61 35.11,-55.43 78.4,-55.43 z"
         inkscape:connector-curvature="0" />
      <path
         id="path2483"
         style="fill:#ffffff;stroke:#ffffff;stroke-width:0.21603"
         d="m 778.84,804.46 c 9.17,0 16.61,5.26 16.61,11.74 0,6.49 -7.44,11.74 -16.61,11.74 -9.17,0 -16.6,-5.25 -16.6,-11.74 0,-6.48 7.43,-11.74 16.6,-11.74 z"
         inkscape:connector-curvature="0" />
      <path
         id="path2485"
         style="fill:#ffffff;stroke:#000000;stroke-width:2.00040007"
         d="m 772.3,816.09 c 0.5,-5.99 -0.73,-15.12 4.92,-18.27 1.33,-0.91 2.72,-0.44 3.65,0.23 3.65,2.62 4.78,10.13 3.85,18.71 -4.47,3.46 -8.62,3.3 -12.42,-0.67 z"
         inkscape:connector-curvature="0" />
      <path
         id="path2489"
         style="fill:#000000;stroke:#000000;stroke-width:0.21603"
         d="m 1105.5,773.85 51.1,-7.45 75,144.7 -4.1,0.83 -73.1,-141.03 -47,6.85 z"
         inkscape:connector-curvature="0" />
      <path
         id="path2491"
         style="fill:#ffffff;stroke:#000000;stroke-width:1.00020003"
         d="m 1156,833.11 10.6,20.78 26.6,-3.85 0.5,-3 -2.7,-5.94 0.8,-12.26 -3.2,-5.54 -25.9,2.85 -0.8,4.73 -4.8,0.3 -0.2,0.01 -0.3,0.02 -0.6,0.03 z"
         inkscape:connector-curvature="0" />
      <path
         id="path2497"
         style="fill:#000000;stroke:#000000;stroke-width:0.21603"
         d="m 1031,682.69 c 6.9,-1.3 12.8,0.11 12,9.49 -9.7,10.54 -14.4,23.52 -14.6,35.18 0.6,22.82 2.9,56.95 -4.5,68.45 -10.2,21.97 -33.53,29.92 -48.38,42.97 0.78,3.36 -0.46,6.74 -1.47,7.99 -5.11,3.89 -8.75,7.09 -13.85,10.98 0.04,1.09 0.09,2.17 0.13,3.25 -5.19,3.8 -10.39,7.59 -15.58,11.39 5.5,2.89 9.35,6.02 12.74,9.21 0.63,1.38 0.36,2.14 -0.81,2.31 -4.08,-4.5 -9.57,-8.43 -18.17,-11.11 -7.05,5.06 -14.09,10.12 -21.14,15.18 -0.14,3.16 -0.27,6.32 -0.41,9.48 -4.24,2.49 -8.49,4.97 -12.74,7.46 -0.41,-0.05 -0.81,-0.09 -1.22,-0.14 -2.84,1.81 -5.69,3.62 -8.54,5.42 -0.86,-0.31 -1.72,-1.04 -2.57,-1.36 0.44,-6.6 -4.15,-11.99 -5.39,-4.11 l -3.39,-2.04 c 0.23,-4.11 0.69,-9.11 0.92,-13.22 1.44,-1.59 3.72,-2.54 5.17,-4.12 l -9.23,-7.95 -0.01,-2.57 22.77,-17.49 c 2.62,1.34 5.24,1.69 7.86,-0.13 10.57,-6.73 21.15,-13.47 31.72,-20.2 1.53,0.82 3.07,1.63 4.61,2.44 5.01,-3.7 10.03,-7.41 15.04,-11.11 1.85,-0.92 3.71,-0.56 5.56,1.08 12.69,-9.4 25.39,-18.79 38.08,-28.19 6.5,-4.3 11.4,-14.67 9.8,-50.01 0.3,-16.58 -0.9,-32.94 5.7,-50.02 2.9,-5.69 7,-12.82 9.9,-18.51 z"
         inkscape:connector-curvature="0" />
      <path
         id="path2499"
         style="fill:#000000;stroke:#000000;stroke-width:0.21603"
         d="m 1129.8,803.4 c 1.2,0 2.1,0.73 2.1,1.62 0,0.9 -0.9,1.63 -2.1,1.63 -1.2,0 -2.2,-0.73 -2.2,-1.63 0,-0.89 1,-1.62 2.2,-1.62 z"
         inkscape:connector-curvature="0" />
      <path
         id="path2501"
         style="fill:#ffffff;stroke:#000000;stroke-width:0.21603"
         d="m 948.03,839.05 c 1.29,-0.2 2.53,-0.66 3.82,0 5.06,-3.44 9.74,-6.88 14.8,-10.32 -2.16,-0.46 -3.26,-0.45 -5.77,0.98 -4.05,2.92 -8.8,6.41 -12.85,9.34 z"
         inkscape:connector-curvature="0" />
      <path
         id="path2503"
         style="fill:#ffffff;stroke:#000000;stroke-width:0.21603"
         d="m 960.46,856.54 c 0.59,-1.17 0.46,-3.4 0.24,-4.83 4.85,-3.73 9.59,-7.08 14.45,-10.81 -0.25,2.2 -0.83,4.35 -2.98,6.28 -4.05,2.93 -7.66,6.43 -11.71,9.36 z"
         inkscape:connector-curvature="0" />
      <path
         id="path2505"
         style="fill:#ffffff;stroke:#000000;stroke-width:0.21603"
         d="m 1028.3,757.73 c 1.7,34.19 -9.4,49.63 -25,59.24 24.9,-12.56 26.6,-34.08 25,-59.24 z"
         inkscape:connector-curvature="0" />
      <path
         id="path2507"
         style="fill:#ffffff;stroke:#000000;stroke-width:0.21603"
         d="m 1040.3,684.61 c -17,25.14 -15.1,47.4 -14.9,64.48 0.1,17.08 1,29.66 -1.3,35.89 -8,22.56 -28.94,35.31 -49.56,49.04 -0.1,0.07 -0.2,0.26 -0.31,0.21 -0.52,-0.22 -0.82,-0.16 -0.99,0.06 -0.15,0.17 -0.21,0.45 -0.25,0.76 -0.02,0.14 -0.23,0.16 -0.34,0.23 -4.76,3.19 -9.48,6.45 -14,9.91 -1.63,-2.01 -3.47,-3.92 -5.78,-5.58 4.75,-3.31 9.5,-6.62 14.26,-9.92 0.06,-0.04 0.13,-0.09 0.19,-0.14 0.27,-0.22 0.53,-0.51 0.85,-0.47 1.15,0.16 1.61,-0.1 1.36,-0.8 -0.03,-0.09 0.16,-0.09 0.24,-0.14 28.2,-16.72 46.43,-34.1 45.83,-63.99 -0.6,-34.23 -6.5,-49.13 14.8,-80.99 4.7,-1.49 8,-1.01 9.9,1.45 z"
         inkscape:connector-curvature="0" />
      <path
         id="path2515"
         style="fill:#000000;stroke:#ffffff;stroke-width:0.21603"
         d="m 595.73,974.6 c 13.23,0 23.96,7.35 23.96,16.42 0,10.08 1.35,12.28 1.35,21.48 0,9.1 -11.03,16.5 -24.64,16.5 -13.6,0 -24.63,-7.4 -24.63,-16.5 v -21.48 c 0,-9.07 10.73,-16.42 23.96,-16.42 z"
         inkscape:connector-curvature="0" />
      <path
         id="path2517"
         style="fill:none;stroke:#000000;stroke-width:0.21603"
         d="m 595.91,974.67 c 13.08,0 23.69,7.11 23.69,15.89 0,8.77 -10.61,15.84 -23.69,15.84 -13.08,0 -23.69,-7.07 -23.69,-15.84 0,-8.78 10.61,-15.89 23.69,-15.89 z"
         inkscape:connector-curvature="0" />
      <path
         id="path2519"
         style="fill:#ffffff;stroke:#000000;stroke-width:0.21603"
         d="m 619.59,990.94 c 0.01,0.14 0.01,0.27 0.01,0.41 0,9.25 -10.61,16.65 -23.69,16.65 -13.08,0 -23.69,-7.4 -23.69,-16.65 0,-0.14 0.01,-0.27 0.01,-0.41 0.31,8.6 10.88,14.76 23.76,14.76 12.89,0 23.3,-6.16 23.6,-14.76 z"
         inkscape:connector-curvature="0" />
      <path
         id="path2521"
         style="fill:#ffffff;stroke:#000000;stroke-width:0.21603"
         d="m 880.14,874.98 24.79,17.53 22.07,-17.13 0.9,-5.54 30.85,-21.35 -16.59,-11.45 c -10.6,6.76 -21.21,13.52 -31.82,20.28 -2.23,1.32 -4.79,1.31 -7.5,0.22 z"
         inkscape:connector-curvature="0" />
      <path
         id="path2523"
         style="fill:#000000;stroke:#000000;stroke-width:0.21603"
         d="m 1165.4,844.44 25.4,-3.35 0.9,-12.13 -24.7,3.48 -4.1,-6.15 3.3,6.27 z"
         inkscape:connector-curvature="0" />
      <path
         id="path2527"
         style="fill:#000000;stroke:#000000;stroke-width:0.21603"
         d="m 1166.9,849.7 0.1,4.2 26.4,-3.73 -0.1,-3.84 -25.6,3.26 -2.3,-5.32 z"
         inkscape:connector-curvature="0" />
      <path
         id="path2529"
         style="fill:#000000;stroke:#000000;stroke-width:0.21603"
         d="m 1072.5,620.18 c -0.7,-0.99 -2.3,-1.16 -3.4,-1.04 -1.5,3.26 -3.2,6.85 -4.8,10.11 -0.3,1.33 1.6,0.99 2.6,1.3 1.6,-3.26 4,-7.12 5.6,-10.37 z"
         inkscape:connector-curvature="0" />
      <path
         id="path2533"
         style="fill:#000000;stroke:#000000;stroke-width:0.21603"
         d="m 920.44,859.17 c 2.79,0 5.06,1.53 5.06,3.43 0,1.89 -2.27,3.43 -5.06,3.43 -2.79,0 -5.06,-1.54 -5.06,-3.43 0,-1.9 2.27,-3.43 5.06,-3.43 z"
         inkscape:connector-curvature="0" />
      <path
         id="path2535"
         style="fill:#000000;stroke:#000000;stroke-width:0.21603"
         d="m 942.12,844.73 c 3.49,0 6.32,1.67 6.32,3.72 0,2.05 -2.83,3.71 -6.32,3.71 -3.49,0 -6.32,-1.66 -6.32,-3.71 0,-2.05 2.83,-3.72 6.32,-3.72 z"
         inkscape:connector-curvature="0" />
      <path
         id="path2537"
         style="fill:#ffffff;stroke:#000000;stroke-width:0.21603"
         d="m 941.3,845.81 c 2.64,0 4.78,1.45 4.78,3.25 0,1.79 -2.14,3.24 -4.78,3.24 -2.65,0 -4.79,-1.45 -4.79,-3.24 0,-1.8 2.14,-3.25 4.79,-3.25 z"
         inkscape:connector-curvature="0" />
      <path
         id="path2539"
         style="fill:#ffffff;stroke:#000000;stroke-width:0.21603"
         d="m 884.12,889.56 10.5,8.92 -0.16,11.46 1.93,-11.12 6.66,-4.1 -7.22,2.11 z"
         inkscape:connector-curvature="0" />
      <path
         id="path2551"
         style="fill:#000000;stroke:#000000;stroke-width:0.21603"
         d="m 1034.5,680.03 c -20.9,27.1 -16.3,50.22 -17.6,67.02 -3.3,-23.81 1.9,-47.31 17.6,-67.02 z"
         inkscape:connector-curvature="0" />
      <path
         id="path2557"
         style="fill:#000000;stroke:#000000;stroke-width:0.21603"
         d="m 775.14,817.43 c 0,0 -1,-16.5 3.16,-19.22 4.16,-2.73 -3.59,11.47 -1,19.94 -0.79,3.26 -3.28,-2.45 -2.16,-0.72 z"
         inkscape:connector-curvature="0" />
      <path
         id="path2559"
         style="fill:#000000;stroke:#000000;stroke-width:0.21603"
         d="m 1162.1,830.69 -1,5.39 -4.7,-4.87 z"
         inkscape:connector-curvature="0" />
    </g>
  </g>
  <metadata
     id="metadata92">
    <rdf:RDF>
      <cc:Work>
        <dc:format>image/svg+xml</dc:format>
        <dc:type
           rdf:resource="http://purl.org/dc/dcmitype/StillImage" />
        <cc:license
           rdf:resource="http://creativecommons.org/publicdomain/zero/1.0/" />
        <dc:publisher>
          <cc:Agent
             rdf:about="http://openclipart.org/">
            <dc:title>Openclipart</dc:title>
          </cc:Agent>
        </dc:publisher>
        <dc:date>2008-09-02T16:18:36</dc:date>
        <dc:description />
        <dc:source>https://openclipart.org/detail/18971/turntable-by-ben</dc:source>
        <dc:creator>
          <cc:Agent>
            <dc:title>ben</dc:title>
          </cc:Agent>
        </dc:creator>
        <dc:subject>
          <rdf:Bag>
            <rdf:li>disc</rdf:li>
            <rdf:li>music</rdf:li>
            <rdf:li>phonograph</rdf:li>
            <rdf:li>sound</rdf:li>
            <rdf:li>turntable</rdf:li>
            <rdf:li>vinyl</rdf:li>
          </rdf:Bag>
        </dc:subject>
      </cc:Work>
      <cc:License
         rdf:about="http://creativecommons.org/publicdomain/zero/1.0/">
        <cc:permits
           rdf:resource="http://creativecommons.org/ns#Reproduction" />
        <cc:permits
           rdf:resource="http://creativecommons.org/ns#Distribution" />
        <cc:permits
           rdf:resource="http://creativecommons.org/ns#DerivativeWorks" />
      </cc:License>
    </rdf:RDF>
  </metadata>
</svg>
